<?xml version="1.0" encoding="utf-8"?>
<svg version="1.1" xmlns:xlink="http://www.w3.org/1999/xlink" width="45px" height="30px" xmlns="http://www.w3.org/2000/svg">
  <defs>
    <filter x="138px" y="46px" width="45px" height="30px" filterUnits="userSpaceOnUse" id="filter182">
      <feOffset dx="0" dy="0" in="SourceAlpha" result="shadowOffsetInner" />
      <feGaussianBlur stdDeviation="1" in="shadowOffsetInner" result="shadowGaussian" />
      <feComposite in2="shadowGaussian" operator="atop" in="SourceAlpha" result="shadowComposite" />
      <feColorMatrix type="matrix" values="0 0 0 0 0  0 0 0 0 0  0 0 0 0 0  0 0 0 0.313725490196078 0  " in="shadowComposite" />
    </filter>
    <g id="widget183">
      <path d="M 1.02099609375 18.04765625  C 0.34033203125 16.44296875  0 14.7604166666667  0 13  C 0 11.2395833333333  0.34033203125 9.55703125  1.02099609375 7.95234375  C 1.70166015625 6.34765625  2.612548828125 4.96640625  3.753662109375 3.80859375  C 4.894775390625 2.65078125  6.256103515625 1.7265625  7.837646484375 1.0359375  C 9.419189453125 0.345312500000001  11.0774739583333 0  12.8125 0  L 28.1875 0  C 29.9225260416667 0  31.580810546875 0.345312500000001  33.162353515625 1.0359375  C 34.743896484375 1.7265625  36.105224609375 2.65078125  37.246337890625 3.80859375  C 38.387451171875 4.96640625  39.29833984375 6.34765625  39.97900390625 7.95234375  C 40.65966796875 9.55703125  41 11.2395833333333  41 13  C 41 14.7604166666667  40.65966796875 16.44296875  39.97900390625 18.04765625  C 39.29833984375 19.65234375  38.387451171875 21.03359375  37.246337890625 22.19140625  C 36.105224609375 23.34921875  34.743896484375 24.2734375  33.162353515625 24.9640625  C 31.580810546875 25.6546875  29.9225260416667 26  28.1875 26  L 12.8125 26  C 11.0774739583333 26  9.419189453125 25.6546875  7.837646484375 24.9640625  C 6.256103515625 24.2734375  4.894775390625 23.34921875  3.753662109375 22.19140625  C 2.612548828125 21.03359375  1.70166015625 19.65234375  1.02099609375 18.04765625  Z M 24.213623046875 22.57734375  C 25.474853515625 23.12578125  26.7994791666667 23.4  28.1875 23.4  C 29.5755208333333 23.4  30.900146484375 23.12578125  32.161376953125 22.57734375  C 33.422607421875 22.02890625  34.513671875 21.2875  35.4345703125 20.353125  C 36.35546875 19.41875  37.086181640625 18.31171875  37.626708984375 17.03203125  C 38.167236328125 15.75234375  38.4375 14.4083333333333  38.4375 13  C 38.4375 11.5916666666667  38.167236328125 10.24765625  37.626708984375 8.96796875  C 37.086181640625 7.68828125  36.35546875 6.58125  35.4345703125 5.646875  C 34.513671875 4.7125  33.422607421875 3.97109375  32.161376953125 3.42265625  C 30.900146484375 2.87421875  29.5755208333333 2.6  28.1875 2.6  C 26.7994791666667 2.6  25.474853515625 2.87421875  24.213623046875 3.42265625  C 22.952392578125 3.97109375  21.861328125 4.7125  20.9404296875 5.646875  C 20.01953125 6.58125  19.288818359375 7.68828125  18.748291015625 8.96796875  C 18.207763671875 10.24765625  17.9375 11.5916666666667  17.9375 13  C 17.9375 14.4083333333333  18.207763671875 15.75234375  18.748291015625 17.03203125  C 19.288818359375 18.31171875  20.01953125 19.41875  20.9404296875 20.353125  C 21.861328125 21.2875  22.952392578125 22.02890625  24.213623046875 22.57734375  Z " fill-rule="nonzero" fill="#18d01e" stroke="none" transform="matrix(1 0 0 1 140 48 )" />
    </g>
  </defs>
  <g transform="matrix(1 0 0 1 -138 -46 )">
    <use xlink:href="#widget183" filter="url(#filter182)" />
    <use xlink:href="#widget183" />
  </g>
</svg>