<?xml version="1.0" encoding="utf-8"?>
<svg version="1.1" xmlns:xlink="http://www.w3.org/1999/xlink" width="12px" height="12px" viewBox="177 283  12 12" xmlns="http://www.w3.org/2000/svg">
  <path d="M 183 283  C 186.36 283  189 285.64  189 289  C 189 292.36  186.36 295  183 295  C 179.64 295  177 292.36  177 289  C 177 285.64  179.64 283  183 283  Z " fill-rule="nonzero" fill="#ffffff" stroke="none" />
  <path d="M 183 283.5  C 186.08 283.5  188.5 285.92  188.5 289  C 188.5 292.08  186.08 294.5  183 294.5  C 179.92 294.5  177.5 292.08  177.5 289  C 177.5 285.92  179.92 283.5  183 283.5  Z " stroke-width="1" stroke="#797979" fill="none" />
  <path d="M 183 292  C 181.32 292  180 290.68  180 289  C 180 287.32  181.32 286  183 286  C 184.68 286  186 287.32  186 289  C 186 290.68  184.68 292  183 292  " fill-rule="nonzero" fill="#797979" stroke="none" />
</svg>