<?xml version="1.0" encoding="utf-8"?>
<svg version="1.1" xmlns:xlink="http://www.w3.org/1999/xlink" width="16px" height="19px" xmlns="http://www.w3.org/2000/svg">
  <g transform="matrix(1 0 0 1 -117 -256 )">
    <path d="M 1.45 0  L 14.55 0  C 14.7416666666667 0  14.925 0.0376734963648384  15.1 0.113020489094515  C 15.375 0.221855034148488  15.59375 0.39347873981053  15.75625 0.627891606080635  C 15.91875 0.862304472350737  16 1.12183300286407  16 1.40647719762062  L 16 17.5935228023794  C 16 17.8781669971359  15.91875 18.1376955276493  15.75625 18.3721083939194  C 15.59375 18.6065212601895  15.375 18.7781449658515  15.1 18.8869795109055  C 14.9416666666667 18.9539546155541  14.7583333333333 18.9874421678784  14.55 18.9874421678784  C 14.15 18.9874421678784  13.8041666666667 18.8534919585812  13.5125 18.5855915399868  L 8 13.261070720423  L 2.4875 18.5855915399868  C 2.1875 18.8618638466623  1.84166666666667 19  1.45 19  C 1.25833333333333 19  1.075 18.9623265036352  0.9 18.8869795109055  C 0.625 18.7781449658515  0.40625 18.6065212601895  0.24375 18.3721083939194  C 0.08125 18.1376955276493  0 17.8781669971359  0 17.5935228023794  L 0 1.40647719762062  C 0 1.12183300286407  0.08125 0.862304472350737  0.24375 0.627891606080635  C 0.40625 0.39347873981053  0.625 0.221855034148488  0.9 0.113020489094515  C 1.075 0.0376734963648384  1.25833333333333 0  1.45 0  Z " fill-rule="nonzero" fill="#ffffff" stroke="none" transform="matrix(1 0 0 1 117 256 )" />
  </g>
</svg>