<?xml version="1.0" encoding="utf-8"?>
<svg version="1.1" xmlns:xlink="http://www.w3.org/1999/xlink" width="22px" height="13px" xmlns="http://www.w3.org/2000/svg">
  <g transform="matrix(1 0 0 1 -248 -326 )">
    <path d="M 21.7795591182365 1.34020618556701  C 21.9265197060788 1.48911798396334  22 1.66036655211913  22 1.85395189003436  C 22 2.0475372279496  21.9265197060788 2.21878579610538  21.7795591182365 2.36769759450172  L 11.5070140280561 12.7766323024055  C 11.3600534402138 12.9255441008018  11.1910487641951 13  11 13  C 10.8089512358049 13  10.6399465597862 12.9255441008018  10.4929859719439 12.7766323024055  L 0.220440881763527 2.36769759450172  C 0.0734802939211759 2.21878579610538  0 2.0475372279496  0 1.85395189003436  C 0 1.66036655211913  0.0734802939211759 1.48911798396334  0.220440881763527 1.34020618556701  L 1.32264529058116 0.223367697594502  C 1.46960587842351 0.0744558991981655  1.63861055444222 0  1.82965931863727 0  C 2.02070808283233 0  2.18971275885104 0.0744558991981655  2.33667334669339 0.223367697594502  L 11 9.00171821305842  L 19.6633266533066 0.223367697594502  C 19.810287241149 0.0744558991981655  19.9792919171677 0  20.1703406813627 0  C 20.3613894455578 0  20.5303941215765 0.0744558991981655  20.6773547094188 0.223367697594502  L 21.7795591182365 1.34020618556701  Z " fill-rule="nonzero" fill="#fefefe" stroke="none" transform="matrix(1 0 0 1 248 326 )" />
  </g>
</svg>