<?xml version="1.0" encoding="utf-8"?>
<svg version="1.1" xmlns:xlink="http://www.w3.org/1999/xlink" width="7px" height="7px" xmlns="http://www.w3.org/2000/svg">
  <g transform="matrix(1 0 0 1 -711 -263 )">
    <path d="M 0.538461538461539 5.375  L 0.538461538461539 6.5  L 1.75 6.5  L 1.75 5.375  L 0.538461538461539 5.375  Z M 2.01923076923077 5.375  L 2.01923076923077 6.5  L 3.36538461538462 6.5  L 3.36538461538462 5.375  L 2.01923076923077 5.375  Z M 0.538461538461539 3.875  L 0.538461538461539 5.125  L 1.75 5.125  L 1.75 3.875  L 0.538461538461539 3.875  Z M 2.01923076923077 3.875  L 2.01923076923077 5.125  L 3.36538461538462 5.125  L 3.36538461538462 3.875  L 2.01923076923077 3.875  Z M 0.538461538461539 2.5  L 0.538461538461539 3.625  L 1.75 3.625  L 1.75 2.5  L 0.538461538461539 2.5  Z M 3.63461538461539 5.375  L 3.63461538461539 6.5  L 4.98076923076923 6.5  L 4.98076923076923 5.375  L 3.63461538461539 5.375  Z M 2.01923076923077 2.5  L 2.01923076923077 3.625  L 3.36538461538462 3.625  L 3.36538461538462 2.5  L 2.01923076923077 2.5  Z M 5.25 5.375  L 5.25 6.5  L 6.46153846153846 6.5  L 6.46153846153846 5.375  L 5.25 5.375  Z M 3.63461538461539 3.875  L 3.63461538461539 5.125  L 4.98076923076923 5.125  L 4.98076923076923 3.875  L 3.63461538461539 3.875  Z M 2.11388221153846 1.837890625  C 2.14052483974359 1.81315104166667  2.15384615384615 1.78385416666667  2.15384615384615 1.75  L 2.15384615384615 0.625  C 2.15384615384615 0.591145833333333  2.14052483974359 0.561848958333333  2.11388221153846 0.537109375  C 2.08723958333333 0.512369791666666  2.0556891025641 0.5  2.01923076923077 0.5  L 1.75 0.5  C 1.71354166666667 0.5  1.68199118589744 0.512369791666666  1.65534855769231 0.537109375  C 1.62870592948718 0.561848958333333  1.61538461538462 0.591145833333333  1.61538461538462 0.625  L 1.61538461538462 1.75  C 1.61538461538462 1.78385416666667  1.62870592948718 1.81315104166667  1.65534855769231 1.837890625  C 1.68199118589744 1.86263020833333  1.71354166666667 1.875  1.75 1.875  L 2.01923076923077 1.875  C 2.0556891025641 1.875  2.08723958333333 1.86263020833333  2.11388221153846 1.837890625  Z M 5.25 3.875  L 5.25 5.125  L 6.46153846153846 5.125  L 6.46153846153846 3.875  L 5.25 3.875  Z M 3.63461538461539 2.5  L 3.63461538461539 3.625  L 4.98076923076923 3.625  L 4.98076923076923 2.5  L 3.63461538461539 2.5  Z M 5.25 2.5  L 5.25 3.625  L 6.46153846153846 3.625  L 6.46153846153846 2.5  L 5.25 2.5  Z M 5.34465144230769 1.837890625  C 5.37129407051282 1.81315104166667  5.38461538461539 1.78385416666667  5.38461538461539 1.75  L 5.38461538461539 0.625  C 5.38461538461539 0.591145833333333  5.37129407051282 0.561848958333333  5.34465144230769 0.537109375  C 5.31800881410256 0.512369791666666  5.28645833333333 0.5  5.25 0.5  L 4.98076923076923 0.5  C 4.9443108974359 0.5  4.91276041666667 0.512369791666666  4.88611778846154 0.537109375  C 4.85947516025641 0.561848958333333  4.84615384615385 0.591145833333333  4.84615384615385 0.625  L 4.84615384615385 1.75  C 4.84615384615385 1.78385416666667  4.85947516025641 1.81315104166667  4.88611778846154 1.837890625  C 4.91276041666667 1.86263020833333  4.9443108974359 1.875  4.98076923076923 1.875  L 5.25 1.875  C 5.28645833333333 1.875  5.31800881410256 1.86263020833333  5.34465144230769 1.837890625  Z M 6.84014423076923 1.1484375  C 6.94671474358974 1.24739583333333  7 1.36458333333333  7 1.5  L 7 6.5  C 7 6.63541666666667  6.94671474358974 6.75260416666667  6.84014423076923 6.8515625  C 6.73357371794872 6.95052083333333  6.6073717948718 7  6.46153846153846 7  L 0.538461538461539 7  C 0.392628205128205 7  0.266426282051282 6.95052083333333  0.159855769230769 6.8515625  C 0.0532852564102564 6.75260416666667  0 6.63541666666667  0 6.5  L 0 1.5  C 0 1.36458333333333  0.0532852564102564 1.24739583333333  0.159855769230769 1.1484375  C 0.266426282051282 1.04947916666667  0.392628205128205 1  0.538461538461539 1  L 1.07692307692308 1  L 1.07692307692308 0.625  C 1.07692307692308 0.453125  1.14282852564103 0.305989583333333  1.27463942307692 0.18359375  C 1.40645032051282 0.0611979166666667  1.56490384615385 0  1.75 0  L 2.01923076923077 0  C 2.20432692307692 0  2.36278044871795 0.0611979166666667  2.49459134615385 0.18359375  C 2.62640224358974 0.305989583333333  2.69230769230769 0.453125  2.69230769230769 0.625  L 2.69230769230769 1  L 4.30769230769231 1  L 4.30769230769231 0.625  C 4.30769230769231 0.453125  4.37359775641026 0.305989583333333  4.50540865384615 0.18359375  C 4.63721955128205 0.0611979166666667  4.79567307692308 0  4.98076923076923 0  L 5.25 0  C 5.43509615384615 0  5.59354967948718 0.0611979166666667  5.72536057692308 0.18359375  C 5.85717147435898 0.305989583333333  5.92307692307692 0.453125  5.92307692307692 0.625  L 5.92307692307692 1  L 6.46153846153846 1  C 6.6073717948718 1  6.73357371794872 1.04947916666667  6.84014423076923 1.1484375  Z " fill-rule="nonzero" fill="#333333" stroke="none" transform="matrix(1 0 0 1 711 263 )" />
  </g>
</svg>