<?xml version="1.0" encoding="utf-8"?>
<svg version="1.1" xmlns:xlink="http://www.w3.org/1999/xlink" width="10px" height="10px" xmlns="http://www.w3.org/2000/svg">
  <g transform="matrix(1 0 0 1 -644 -1439 )">
    <path d="M 9.76251604621309 4.67391304347826  C 9.92083868207103 4.85054347826087  10 5.05661231884058  10 5.29211956521739  C 10 5.52309782608696  9.92083868207103 5.72690217391304  9.76251604621309 5.90353260869565  L 9.2811296534018 6.41304347826087  C 9.11852802738554 6.58514492753623  8.92383397518186 6.67119565217391  8.69704749679076 6.67119565217391  C 8.46598202824133 6.67119565217391  8.27342747111682 6.58514492753623  8.1193838254172 6.41304347826087  L 6.23234916559692 4.42255434782609  L 6.23234916559692 9.20516304347826  C 6.23234916559692 9.44067028985507  6.15211810012837 9.63201992753623  5.99165596919127 9.77921195652174  C 5.83119383825417 9.92640398550725  5.63756953359007 10  5.41078305519897 10  L 4.58921694480103 10  C 4.36243046640993 10  4.16880616174583 9.92640398550725  4.00834403080873 9.77921195652174  C 3.84788189987163 9.63201992753623  3.76765083440308 9.44067028985507  3.76765083440308 9.20516304347826  L 3.76765083440308 4.42255434782609  L 1.8806161745828 6.41304347826087  C 1.72657252888318 6.58514492753623  1.53401797175867 6.67119565217391  1.30295250320924 6.67119565217391  C 1.07188703465982 6.67119565217391  0.879332477535302 6.58514492753623  0.725288831835687 6.41304347826087  L 0.24390243902439 5.90353260869565  C 0.0813008130081301 5.73143115942029  0 5.5276268115942  0 5.29211956521739  C 0 5.05208333333333  0.0813008130081301 4.84601449275362  0.24390243902439 4.67391304347826  L 4.42233632862644 0.251358695652174  C 4.57210098416774 0.0837862318840576  4.76465554129226 0  5 0  C 5.23106546854942 0  5.4257595207531 0.0837862318840576  5.58408215661104 0.251358695652174  L 9.76251604621309 4.67391304347826  Z " fill-rule="nonzero" fill="#169bd5" stroke="none" transform="matrix(1 0 0 1 644 1439 )" />
  </g>
</svg>