<?xml version="1.0" encoding="utf-8"?>
<svg version="1.1" xmlns:xlink="http://www.w3.org/1999/xlink" width="7px" height="2px" xmlns="http://www.w3.org/2000/svg">
  <g transform="matrix(1 0 0 1 -55 -164 )">
    <path d="M 1.76988636363636 0.145833333333333  C 1.86268939393939 0.243055555555555  1.90909090909091 0.361111111111111  1.90909090909091 0.5  L 1.90909090909091 1.5  C 1.90909090909091 1.63888888888889  1.86268939393939 1.75694444444444  1.76988636363636 1.85416666666667  C 1.67708333333333 1.95138888888889  1.56439393939394 2  1.43181818181818 2  L 0.477272727272727 2  C 0.34469696969697 2  0.232007575757576 1.95138888888889  0.139204545454545 1.85416666666667  C 0.0464015151515151 1.75694444444444  0 1.63888888888889  0 1.5  L 0 0.5  C 0 0.361111111111111  0.0464015151515151 0.243055555555555  0.139204545454545 0.145833333333333  C 0.232007575757576 0.0486111111111107  0.34469696969697 0  0.477272727272727 0  L 1.43181818181818 0  C 1.56439393939394 0  1.67708333333333 0.0486111111111107  1.76988636363636 0.145833333333333  Z M 4.31534090909091 0.145833333333333  C 4.40814393939394 0.243055555555555  4.45454545454545 0.361111111111111  4.45454545454545 0.5  L 4.45454545454545 1.5  C 4.45454545454545 1.63888888888889  4.40814393939394 1.75694444444444  4.31534090909091 1.85416666666667  C 4.22253787878788 1.95138888888889  4.10984848484849 2  3.97727272727273 2  L 3.02272727272727 2  C 2.89015151515152 2  2.77746212121212 1.95138888888889  2.68465909090909 1.85416666666667  C 2.59185606060606 1.75694444444444  2.54545454545455 1.63888888888889  2.54545454545455 1.5  L 2.54545454545455 0.5  C 2.54545454545455 0.361111111111111  2.59185606060606 0.243055555555555  2.68465909090909 0.145833333333333  C 2.77746212121212 0.0486111111111107  2.89015151515152 0  3.02272727272727 0  L 3.97727272727273 0  C 4.10984848484849 0  4.22253787878788 0.0486111111111107  4.31534090909091 0.145833333333333  Z M 6.86079545454545 0.145833333333333  C 6.95359848484849 0.243055555555555  7 0.361111111111111  7 0.5  L 7 1.5  C 7 1.63888888888889  6.95359848484849 1.75694444444444  6.86079545454545 1.85416666666667  C 6.76799242424242 1.95138888888889  6.65530303030303 2  6.52272727272727 2  L 5.56818181818182 2  C 5.43560606060606 2  5.32291666666667 1.95138888888889  5.23011363636364 1.85416666666667  C 5.13731060606061 1.75694444444444  5.09090909090909 1.63888888888889  5.09090909090909 1.5  L 5.09090909090909 0.5  C 5.09090909090909 0.361111111111111  5.13731060606061 0.243055555555555  5.23011363636364 0.145833333333333  C 5.32291666666667 0.0486111111111107  5.43560606060606 0  5.56818181818182 0  L 6.52272727272727 0  C 6.65530303030303 0  6.76799242424242 0.0486111111111107  6.86079545454545 0.145833333333333  Z " fill-rule="nonzero" fill="#ffffff" stroke="none" transform="matrix(1 0 0 1 55 164 )" />
  </g>
</svg>