<?xml version="1.0" encoding="utf-8"?>
<svg version="1.1" xmlns:xlink="http://www.w3.org/1999/xlink" width="97px" height="41px" xmlns="http://www.w3.org/2000/svg">
  <defs>
    <mask fill="white" id="clip1">
      <path d="M 0 34  L 0 7  C 0 3.08000000000004  3.07999999999998 0  7 0  L 41.0555555555551 0  L 90 0  C 93.92 0  97 3.08000000000004  97 7  L 97 34  C 97 37.92  93.92 41  90 41  L 7 41  C 3.07999999999998 41  0 37.92  0 34  Z " fill-rule="evenodd" />
    </mask>
  </defs>
  <g transform="matrix(1 0 0 1 -1695 -1122 )">
    <path d="M 0 34  L 0 7  C 0 3.08000000000004  3.07999999999998 0  7 0  L 41.0555555555551 0  L 90 0  C 93.92 0  97 3.08000000000004  97 7  L 97 34  C 97 37.92  93.92 41  90 41  L 7 41  C 3.07999999999998 41  0 37.92  0 34  Z " fill-rule="nonzero" fill="#ffffff" stroke="none" transform="matrix(1 0 0 1 1695 1122 )" />
    <path d="M 0 34  L 0 7  C 0 3.08000000000004  3.07999999999998 0  7 0  L 41.0555555555551 0  L 90 0  C 93.92 0  97 3.08000000000004  97 7  L 97 34  C 97 37.92  93.92 41  90 41  L 7 41  C 3.07999999999998 41  0 37.92  0 34  Z " stroke-width="2" stroke="#797979" fill="none" transform="matrix(1 0 0 1 1695 1122 )" mask="url(#clip1)" />
  </g>
</svg>