<?xml version="1.0" encoding="utf-8"?>
<svg version="1.1" xmlns:xlink="http://www.w3.org/1999/xlink" width="218px" height="40px" xmlns="http://www.w3.org/2000/svg">
  <defs>
    <linearGradient gradientUnits="userSpaceOnUse" x1="222" y1="395" x2="14.3636363636357" y2="395" id="LinearGradient161">
      <stop id="Stop162" stop-color="#fce8ee" offset="0" />
      <stop id="Stop163" stop-color="#fcedfc" offset="1" />
    </linearGradient>
    <filter x="8px" y="376px" width="218px" height="40px" filterUnits="userSpaceOnUse" id="filter164">
      <feOffset dx="1" dy="1" in="SourceAlpha" result="shadowOffsetInner" />
      <feGaussianBlur stdDeviation="1.5" in="shadowOffsetInner" result="shadowGaussian" />
      <feComposite in2="shadowGaussian" operator="atop" in="SourceAlpha" result="shadowComposite" />
      <feColorMatrix type="matrix" values="0 0 0 0 0  0 0 0 0 0  0 0 0 0 0  0 0 0 0.349019607843137 0  " in="shadowComposite" />
    </filter>
    <g id="widget165">
      <path d="M 12.5 395  A 14.5 14.5 0 0 1 27 380.5 L 205 380.5  A 14.5 14.5 0 0 1 219.5 395 A 14.5 14.5 0 0 1 205 409.5 L 27 409.5  A 14.5 14.5 0 0 1 12.5 395 Z " fill-rule="nonzero" fill="#ffffff" stroke="none" />
      <path d="M 11.5 395  A 15.5 15.5 0 0 1 27 379.5 L 205 379.5  A 15.5 15.5 0 0 1 220.5 395 A 15.5 15.5 0 0 1 205 410.5 L 27 410.5  A 15.5 15.5 0 0 1 11.5 395 Z " stroke-width="3" stroke="url(#LinearGradient161)" fill="none" />
    </g>
  </defs>
  <g transform="matrix(1 0 0 1 -8 -376 )">
    <use xlink:href="#widget165" filter="url(#filter164)" />
    <use xlink:href="#widget165" />
  </g>
</svg>