<?xml version="1.0" encoding="utf-8"?>
<svg version="1.1" xmlns:xlink="http://www.w3.org/1999/xlink" width="7px" height="7px" xmlns="http://www.w3.org/2000/svg">
  <g transform="matrix(1 0 0 1 -122 -180 )">
    <path d="M 4.29296875 4.29296875  C 4.66175881410256 3.92417868589744  4.84615384615385 3.48036858974359  4.84615384615385 2.96153846153846  C 4.84615384615385 2.44270833333333  4.66175881410256 1.99889823717949  4.29296875 1.63010817307692  C 3.92417868589744 1.26131810897436  3.48036858974359 1.07692307692308  2.96153846153846 1.07692307692308  C 2.44270833333333 1.07692307692308  1.99889823717949 1.26131810897436  1.63010817307692 1.63010817307692  C 1.26131810897436 1.99889823717949  1.07692307692308 2.44270833333333  1.07692307692308 2.96153846153846  C 1.07692307692308 3.48036858974359  1.26131810897436 3.92417868589744  1.63010817307692 4.29296875  C 1.99889823717949 4.66175881410256  2.44270833333333 4.84615384615385  2.96153846153846 4.84615384615385  C 3.48036858974359 4.84615384615385  3.92417868589744 4.66175881410256  4.29296875 4.29296875  Z M 6.84435096153846 6.08293269230769  C 6.94811698717949 6.18669871794872  7 6.31290064102564  7 6.46153846153846  C 7 6.6073717948718  6.94671474358974 6.73357371794872  6.84014423076923 6.84014423076923  C 6.73357371794872 6.94671474358974  6.6073717948718 7  6.46153846153846 7  C 6.31009615384615 7  6.18389423076923 6.94671474358974  6.08293269230769 6.84014423076923  L 4.64002403846154 5.40144230769231  C 4.13802083333333 5.74919871794872  3.57852564102564 5.92307692307692  2.96153846153846 5.92307692307692  C 2.5604967948718 5.92307692307692  2.17698317307692 5.84525240384615  1.81099759615385 5.68960336538462  C 1.44501201923077 5.53395432692308  1.12950721153846 5.32361778846154  0.864483173076923 5.05859375  C 0.599459134615385 4.79356971153846  0.389122596153846 4.47806490384615  0.233473557692308 4.11207932692308  C 0.0778245192307692 3.74609375  0 3.36258012820513  0 2.96153846153846  C 0 2.56049679487179  0.0778245192307692 2.17698317307692  0.233473557692308 1.81099759615385  C 0.389122596153846 1.44501201923077  0.599459134615385 1.12950721153846  0.864483173076923 0.864483173076923  C 1.12950721153846 0.599459134615385  1.44501201923077 0.389122596153846  1.81099759615385 0.233473557692308  C 2.17698317307692 0.0778245192307691  2.5604967948718 0  2.96153846153846 0  C 3.36258012820513 0  3.74609375 0.0778245192307691  4.11207932692308 0.233473557692308  C 4.47806490384615 0.389122596153846  4.79356971153846 0.599459134615385  5.05859375 0.864483173076923  C 5.32361778846154 1.12950721153846  5.53395432692308 1.44501201923077  5.68960336538462 1.81099759615385  C 5.84525240384615 2.17698317307692  5.92307692307692 2.56049679487179  5.92307692307692 2.96153846153846  C 5.92307692307692 3.57852564102564  5.74919871794872 4.13802083333333  5.40144230769231 4.64002403846154  L 6.84435096153846 6.08293269230769  Z " fill-rule="nonzero" fill="#8d8d8d" stroke="none" transform="matrix(1 0 0 1 122 180 )" />
  </g>
</svg>