<?xml version="1.0" encoding="utf-8"?>
<svg version="1.1" xmlns:xlink="http://www.w3.org/1999/xlink" width="16px" height="16px" xmlns="http://www.w3.org/2000/svg">
  <g transform="matrix(1 0 0 1 -36 -214 )">
    <path d="M 3.984375 1.07291666666666  C 5.21006944444444 0.357638888888886  6.54861111111111 0  8 0  C 9.45138888888889 0  10.7899305555556 0.357638888888886  12.015625 1.07291666666666  C 13.2413194444444 1.78819444444444  14.2118055555556 2.75868055555556  14.9270833333333 3.984375  C 15.6423611111111 5.21006944444444  16 6.54861111111111  16 8  C 16 9.45138888888889  15.6423611111111 10.7899305555556  14.9270833333333 12.015625  C 14.2118055555556 13.2413194444444  13.2413194444444 14.2118055555556  12.015625 14.9270833333333  C 10.7899305555556 15.6423611111111  9.45138888888889 16  8 16  C 6.54861111111111 16  5.21006944444444 15.6423611111111  3.984375 14.9270833333333  C 2.75868055555556 14.2118055555556  1.78819444444444 13.2413194444444  1.07291666666667 12.015625  C 0.357638888888889 10.7899305555556  0 9.45138888888889  0 8  C 0 6.54861111111111  0.357638888888889 5.21006944444444  1.07291666666667 3.984375  C 1.78819444444444 2.75868055555556  2.75868055555556 1.78819444444444  3.984375 1.07291666666666  Z M 6.33333333333334 11.90625  L 10.2267837496146 9.61598504924633  L 12 8.57291666666667  C 12.2222222222222 8.44791666666667  12.3333333333333 8.25694444444444  12.3333333333333 8  C 12.3333333333333 7.74305555555556  12.2222222222222 7.55208333333334  12 7.42708333333334  L 6.33333333333334 4.09375  C 6.11805555555556 3.96180555555556  5.89583333333333 3.95833333333334  5.66666666666667 4.08333333333334  C 5.44444444444445 4.21527777777778  5.33333333333333 4.40972222222222  5.33333333333333 4.66666666666666  L 5.33333333333333 11.3333333333333  C 5.33333333333333 11.5902777777778  5.44444444444445 11.7847222222222  5.66666666666667 11.9166666666667  C 5.77777777777778 11.9722222222222  5.88888888888889 12  6 12  C 6.11805555555556 12  6.22916666666666 11.96875  6.33333333333334 11.90625  Z " fill-rule="nonzero" fill="#000000" stroke="none" fill-opacity="0.403921568627451" transform="matrix(1 0 0 1 36 214 )" />
  </g>
</svg>