<?xml version="1.0" encoding="utf-8"?>
<svg version="1.1" xmlns:xlink="http://www.w3.org/1999/xlink" width="16px" height="16px" xmlns="http://www.w3.org/2000/svg">
  <g transform="matrix(1 0 0 1 -766 -536 )">
    <path d="M 15.9829666430092 0.607954545454545  C 16.009462976106 0.763257575757574  15.9848592382304 0.912878787878787  15.9091554293825 1.05681818181818  L 8.64158977998581 15.6022727272727  C 8.51289330494441 15.8674242424242  8.29713744972794 16  7.99432221433641 16  C 7.95647030991247 16  7.89969245327656 15.9924242424242  7.82398864442867 15.9772727272727  C 7.65744026496333 15.9393939393939  7.52306600425834 15.8541666666667  7.4208658623137 15.7215909090909  C 7.31866572036906 15.5890151515152  7.26756564939673 15.4393939393939  7.26756564939673 15.2727272727273  L 7.26756564939673 8.72727272727273  L 0.726756564939674 8.72727272727273  C 0.560208185474332 8.72727272727273  0.410693162999763 8.67613636363636  0.278211497515969 8.57386363636364  C 0.145729832032174 8.47159090909091  0.0605630470783061 8.33712121212121  0.0227111426543648 8.17045454545455  C -0.0151407617695765 8.00378787878788  0 7.84469696969697  0.0681334279630944 7.69318181818182  C 0.136266855926189 7.54166666666667  0.246037378755619 7.4280303030303  0.397444996451384 7.35227272727273  L 14.9325762952449 0.079545454545455  C 15.0309912467471 0.0265151515151505  15.1407617695765 0  15.2618878637331 0  C 15.4662881476224 0  15.6366217175302 0.0719696969696955  15.7728885734564 0.215909090909092  C 15.8864442867282 0.321969696969695  15.9564703099125 0.452651515151514  15.9829666430092 0.607954545454545  Z " fill-rule="nonzero" fill="#ff6060" stroke="none" transform="matrix(1 0 0 1 766 536 )" />
  </g>
</svg>