<?xml version="1.0" encoding="utf-8"?>
<svg version="1.1" xmlns:xlink="http://www.w3.org/1999/xlink" width="10px" height="10px" xmlns="http://www.w3.org/2000/svg">
  <g transform="matrix(1 0 0 1 -1453 -367 )">
    <path d="M 9.98935415188077 0.379971590909091  C 10.0059143600662 0.477035984848484  9.99053702389402 0.570549242424242  9.94322214336409 0.660511363636364  L 5.40099361249113 9.75142045454545  C 5.32055831559025 9.91714015151515  5.18571090607996 10  4.99645138396026 10  C 4.97279394369529 10  4.93730778329785 9.99526515151515  4.88999290276792 9.98579545454545  C 4.78590016560208 9.96212121212121  4.70191625266146 9.90885416666667  4.63804116394606 9.82599431818182  C 4.57416607523066 9.74313446969697  4.54222853087296 9.64962121212121  4.54222853087296 9.54545454545455  L 4.54222853087296 5.45454545454545  L 0.454222853087296 5.45454545454545  C 0.350130115921457 5.45454545454545  0.256683226874852 5.42258522727273  0.173882185947481 5.35866477272727  C 0.0910811450201088 5.29474431818182  0.0378519044239413 5.21070075757576  0.014194464158978 5.10653409090909  C -0.00946297610598533 5.00236742424242  0 4.90293560606061  0.042583392476934 4.80823863636364  C 0.085166784953868 4.71354166666667  0.153773361722262 4.64251893939394  0.248403122782115 4.59517045454545  L 9.33286018452803 0.0497159090909094  C 9.39436952921694 0.0165719696969691  9.46297610598533 0  9.53867991483321 0  C 9.66643009226402 0  9.77288857345635 0.0449810606060597  9.85805535841022 0.134943181818182  C 9.92902767920511 0.20123106060606  9.97279394369529 0.282907196969696  9.98935415188077 0.379971590909091  Z " fill-rule="nonzero" fill="#ff6060" stroke="none" transform="matrix(1 0 0 1 1453 367 )" />
  </g>
</svg>