<?xml version="1.0" encoding="utf-8"?>
<svg version="1.1" xmlns:xlink="http://www.w3.org/1999/xlink" width="182px" height="30px" viewBox="25 179  182 30" xmlns="http://www.w3.org/2000/svg">
  <path d="M 26 183  A 3 3 0 0 1 29 180 L 203 180  A 3 3 0 0 1 206 183 L 206 205  A 3 3 0 0 1 203 208 L 29 208  A 3 3 0 0 1 26 205 L 26 183  Z " fill-rule="nonzero" fill="#f0f0f0" stroke="none" />
  <path d="M 25.5 183  A 3.5 3.5 0 0 1 29 179.5 L 203 179.5  A 3.5 3.5 0 0 1 206.5 183 L 206.5 205  A 3.5 3.5 0 0 1 203 208.5 L 29 208.5  A 3.5 3.5 0 0 1 25.5 205 L 25.5 183  Z " stroke-width="1" stroke="#302f51" fill="none" stroke-opacity="0.996078431372549" />
</svg>