<?xml version="1.0" encoding="utf-8"?>
<svg version="1.1" xmlns:xlink="http://www.w3.org/1999/xlink" width="86px" height="30px" viewBox="25 261  86 30" xmlns="http://www.w3.org/2000/svg">
  <path d="M 26 265  A 3 3 0 0 1 29 262 L 107 262  A 3 3 0 0 1 110 265 L 110 287  A 3 3 0 0 1 107 290 L 29 290  A 3 3 0 0 1 26 287 L 26 265  Z " fill-rule="nonzero" fill="#f0f0f0" stroke="none" />
  <path d="M 25.5 265  A 3.5 3.5 0 0 1 29 261.5 L 107 261.5  A 3.5 3.5 0 0 1 110.5 265 L 110.5 287  A 3.5 3.5 0 0 1 107 290.5 L 29 290.5  A 3.5 3.5 0 0 1 25.5 287 L 25.5 265  Z " stroke-width="1" stroke="#302f51" fill="none" stroke-opacity="0.996078431372549" />
</svg>